<svg id="Layer_1" enable-background="new 0 0 512 512" viewBox="0 0 512 512" xmlns="http://www.w3.org/2000/svg"><g><path d="m176.2 88.9c.8.8 1.2 1.8 1.3 2.9.8 9.9 8.2 23.6 20.4 35.8s25.8 19.6 35.7 20.4c1.1.1 2.2.5 3 1.3l.4.4c1.8 1.8 1.8 4.7 0 6.5l-.4.4c-.8.8-1.9 1.2-3 1.3-9.9.8-23.6 8.3-35.7 20.4-12.2 12.2-19.6 25.8-20.4 35.7-.1 1.1-.5 2.2-1.3 3l-.4.4c-1.8 1.8-4.7 1.8-6.5 0l-.4-.4c-.8-.8-1.2-1.8-1.3-2.9-.8-9.9-8.2-23.6-20.4-35.8s-25.8-19.6-35.7-20.4c-1.1-.1-2.2-.5-3-1.3l-.4-.4c-1.8-1.8-1.8-4.7 0-6.5l.4-.4c.8-.8 1.8-1.2 2.9-1.3 9.9-.8 23.6-8.2 35.8-20.4s19.6-25.9 20.4-35.8c.1-1.1.5-2.2 1.3-2.9l.4-.4c1.8-1.8 4.7-1.8 6.5 0z" fill="#fbb03a"/><path d="m278.6 56.3c.7.7 1 1.5 1.1 2.4.6 8.2 6.8 19.6 16.9 29.7s21.4 16.3 29.7 16.9c.9.1 1.8.5 2.5 1.1l.3.3c1.5 1.5 1.5 3.9 0 5.4l-.3.3c-.7.7-1.5 1-2.5 1.1-8.2.7-19.6 6.8-29.7 16.9s-16.3 21.4-16.9 29.7c-.1.9-.5 1.8-1.1 2.5l-.3.3c-1.5 1.5-3.9 1.5-5.4 0l-.3-.3c-.7-.7-1-1.5-1.1-2.4-.6-8.2-6.8-19.6-16.9-29.7s-21.4-16.3-29.6-16.9c-.9-.1-1.8-.5-2.5-1.1l-.3-.3c-1.5-1.5-1.5-3.9 0-5.4l.3-.3c.7-.7 1.5-1 2.4-1.1 8.2-.6 19.6-6.8 29.7-16.9s16.3-21.5 16.9-29.7c.1-.9.5-1.8 1.1-2.4l.3-.3c1.5-1.5 3.9-1.5 5.4 0z" fill="#fbb03a"/><g><path d="m182.9 450.9-147.2-147.2c-8.4-8.4-8.4-22 0-30.4l50-50c8.4-8.4 22-8.4 30.4 0l66.4 66.4c8.4 8.4 22 8.4 30.4 0l183.1-183.2c8.4-8.4 22-8.4 30.4 0l50 50c8.4 8.4 8.4 22 0 30.4l-262.6 264c-8.5 8.4-22.5 8.4-30.9 0z" fill="#fbb03a"/></g></g></svg>