<svg id="Layer_1" enable-background="new 0 0 512 512" viewBox="0 0 512 512" xmlns="http://www.w3.org/2000/svg"><g clip-rule="evenodd" fill-rule="evenodd"><path d="m240.1 182.66c11.62 3.12 21.99 3.12 33.61 0l8.2-2.2-5.39-11.48c-.76-1.61-.76-3.47-.01-5.08s2.17-2.81 3.89-3.27l92.87-24.88c1.71-.46 3.54-.14 5 .88 1.45 1.02 2.38 2.63 2.53 4.4l1.07 12.64 56.39-15.11c6.14-1.65 11.12-3.68 16.65-6.81l12.72-7.19c.96-.54 1.39-1.51 1.16-2.58s-1.03-1.77-2.12-1.87l-15.83-1.36c-3.88-.34-7.41-1.17-10.83-2.54l-39.66 10.63c-2.04.55-4.09.82-6.09.82-4.3 0-8.42-1.25-11.99-3.68-5.21-3.56-8.63-9.41-9.37-16.06l-.25-2.2-127.17 34.07c-12.74 3.41-25.52.15-35.07-8.95l-33.03-31.5c-1.83-1.75-4.1-2.33-6.55-1.67l-7.8 2.09c-1.49.4-2.47 1.31-2.97 2.77-.5 1.47-.29 2.78.65 4.01l21.76 28.68c4.7 6.19 4.44 14.62-.63 20.51-1.38 1.6-1.7 3.67-.9 5.68 1.56 3.9 4.71 6.66 8.89 7.78l2.1.56.78-2.03c1.6-4.15 4.98-7.19 9.27-8.34l15.91-4.26c4.04-1.08 8.21.43 10.62 3.85s2.43 7.85.06 11.3l-5.43 7.86zm5.85-35.61c7.89-2.11 12.02 12.59 3.94 14.74-8.07 2.16-11.84-12.63-3.94-14.74zm25.34 9.01c-8.07 2.16-11.84-12.64-3.94-14.74 7.89-2.11 12.01 12.59 3.94 14.74zm21.4-5.73c-8.07 2.16-11.83-12.64-3.95-14.74 7.89-2.11 12.02 12.58 3.95 14.74zm21.39-5.73c-8.07 2.15-11.84-12.64-3.94-14.75 7.89-2.1 12.02 12.59 3.94 14.75zm21.4-5.74c-8.07 2.16-11.84-12.63-3.94-14.74 7.89-2.11 12.01 12.59 3.94 14.74zm21.4-5.73c-8.07 2.16-11.83-12.64-3.94-14.74 7.89-2.11 12.01 12.58 3.94 14.74z" fill="#2a7abd"/><g fill="#1f5882"><path d="m198.83 192.22 16.58-24.02-10.33 2.76c-.61.17-.94.46-1.17 1.06l-9.05 23.53c1.57-.67 2.9-1.78 3.97-3.33z"/><path d="m369.45 149.2-79.02 21.17 3.38 7.19c2.28 4.87 8.73 7.94 13.8 6.59l53.85-14.43c5.07-1.36 9.12-7.25 8.67-12.61z"/><path d="m384.83 106.57c.36 3.22 1.85 5.88 4.21 7.49 2.3 1.57 5.21 1.99 8.2 1.18l27.53-7.38-9.66-5.58c-6.33-3.66-12.85-4.51-19.91-2.62l-10.83 2.9z"/><path d="m297.84 262.57-92.47-22.16c-16.91-4.05-32.38-1.71-47.32 7.17l-66.44 39.49 47.58 79.93 26.45-15.27c1.35-.78 2.95-1 4.46-.62l114.27 28.74c11.76 2.96 22.92 1.18 33.18-5.27l154.45-97.19c12.75-8.02 16.59-24.91 8.57-37.66s-24.91-16.59-37.65-8.57l-128.99 81.16-.02-.03c-6.04 4.41-13.53 6.95-21.48 6.95-2.03 0-4.08-.17-6.15-.5l-71.45-11.73c-3.27-.54-5.48-3.62-4.95-6.89s3.62-5.48 6.89-4.95l71.45 11.73c12.73 2.09 24.66-5.55 27.19-17.38 2.6-12.13-5.12-23.96-17.57-26.95z"/><path d="m144.15 398.76-75.85-127.41-38.73 23.05 89.91 119.05z"/></g></g></svg>