<svg viewBox="0 0 32 32" xmlns="http://www.w3.org/2000/svg"><g id="Layer_5" data-name="Layer 5"><path d="m20.13 13.12h-12.89a.79.79 0 0 0 -.79.79v9.33a.79.79 0 0 0 .79.79h3.23a.79.79 0 0 1 .39.11l2.43 1.4a.79.79 0 0 0 .79 0l2.43-1.4a.79.79 0 0 1 .39-.14h3.23a.79.79 0 0 0 .79-.79v-9.3a.79.79 0 0 0 -.79-.79z" fill="#289fcd"/><path d="m13.69 26.13a1.29 1.29 0 0 1 -.69-.13l-2.43-1.4a.28.28 0 0 0 -.14 0h-3.19a1.29 1.29 0 0 1 -1.24-1.36v-9.33a1.29 1.29 0 0 1 1.29-1.29h12.84a1.29 1.29 0 0 1 1.29 1.29v9.33a1.29 1.29 0 0 1 -1.29 1.29h-3.23a.28.28 0 0 0 -.14 0l-2.43 1.47a1.29 1.29 0 0 1 -.64.13zm-6.45-12.51a.29.29 0 0 0 -.29.29v9.33a.29.29 0 0 0 .29.29h3.23a1.28 1.28 0 0 1 .64.17l2.42 1.4a.29.29 0 0 0 .29 0l2.42-1.4a1.28 1.28 0 0 1 .64-.17h3.23a.29.29 0 0 0 .29-.29v-9.33a.29.29 0 0 0 -.29-.29z" fill="#402f6c"/><path d="m24.76 6.37h-12.89a.79.79 0 0 0 -.79.79v9.33a.79.79 0 0 0 .79.79h3.23a.79.79 0 0 1 .39.11l2.43 1.4a.79.79 0 0 0 .79 0l2.43-1.4a.79.79 0 0 1 .39-.11h3.23a.79.79 0 0 0 .79-.79v-9.34a.79.79 0 0 0 -.79-.78z" fill="#ebf2f8"/><path d="m18.31 19.38a1.28 1.28 0 0 1 -.64-.17l-2.42-1.4a.3.3 0 0 0 -.14 0h-3.24a1.29 1.29 0 0 1 -1.29-1.29v-9.37a1.29 1.29 0 0 1 1.29-1.29h12.89a1.29 1.29 0 0 1 1.24 1.29v9.33a1.29 1.29 0 0 1 -1.29 1.29h-3.19a.3.3 0 0 0 -.15 0l-2.37 1.44a1.28 1.28 0 0 1 -.69.17zm-6.44-12.51a.29.29 0 0 0 -.29.29v9.33a.29.29 0 0 0 .29.29h3.23a1.29 1.29 0 0 1 .64.17l2.43 1.4a.29.29 0 0 0 .29 0l2.42-1.4a1.3 1.3 0 0 1 .64-.17h3.23a.29.29 0 0 0 .29-.29v-9.34a.29.29 0 0 0 -.29-.29z" fill="#402f6c"/><path d="m17.69 13.6v-.31a2.64 2.64 0 0 1 .71-1.88 2.21 2.21 0 0 0 .7-1.25c0-.42-.28-.7-.87-.72a2.27 2.27 0 0 0 -1.23.36l-.41-1.31a4.12 4.12 0 0 1 2-.49c1.58 0 2.3.88 2.3 1.87a3 3 0 0 1 -1 2 2.06 2.06 0 0 0 -.61 1.5v.22zm-.31 1.66a1.07 1.07 0 1 1 1.07 1.09 1 1 0 0 1 -1.07-1.1z" fill="#289fcd"/></g></svg>